# xmcd
#
# Track frame offsets:
#	165
#	16874
#	32095
#	48776
#	65382
#	89243
#	104552
#	117909
#	134684
#	150545
#	166913
#
# Disc length: 2407 seconds
# Revision: 0
# Processed by: cddbd v1.5.2PL0 Copyright (c) Steve Scherf et al.
# Submitted via: dBpowerAMP V12.0
#
DISCID=8f09650b
DTITLE=Royal Tailor - Black and White
DYEAR=2011
DGENRE=Gospel
TTITLE0=Death Of Me
TTITLE1=Make A Move
TTITLE2=Freefall
TTITLE3=Control
TTITLE4=Gravity (Pulling Heaven Down)
TTITLE5=Hold Me Together
TTITLE6=Wannabe
TTITLE7=Black and White
TTITLE8=Run To Love
TTITLE9=Hope
TTITLE10=Love Is Here
EXTD=
EXTT0=
EXTT1=
EXTT2=
EXTT3=
EXTT4=
EXTT5=
EXTT6=
EXTT7=
EXTT8=
EXTT9=
EXTT10=
PLAYORDER=
